<svg width="162" height="48" viewBox="0 0 162 48" fill="none" xmlns="http://www.w3.org/2000/svg">
<path d="M156.5 0.5H5.5C2.73858 0.5 0.5 2.73858 0.5 5.5V42.5C0.5 45.2614 2.73858 47.5 5.5 47.5H156.5C159.261 47.5 161.5 45.2614 161.5 42.5V5.5C161.5 2.73858 159.261 0.5 156.5 0.5Z" fill="#0A0B09" stroke="#9D9E9A"/>
<path d="M32.1912 12.4027C32.6719 8.41311 36.2874 5.57115 40.2651 6.05331L40.9621 6.13743C41.0823 6.15245 41.1693 6.26209 41.1542 6.38226L41.07 7.08074C40.5894 11.0703 36.9739 13.9123 32.9963 13.4301L32.2994 13.346C32.1792 13.331 32.0936 13.2213 32.1071 13.1011L32.1912 12.4027Z" fill="white"/>
<path fill-rule="evenodd" clip-rule="evenodd" d="M28.1338 15.7629C23.6411 15.7629 20 19.416 20 23.9207V33.8422C20 38.3467 23.6411 42 28.1338 42H38.0266C42.5192 42 46.1605 38.3483 46.1605 33.8422V23.9207C46.1605 19.416 42.5192 15.7629 38.0266 15.7629H28.1338ZM28.574 21.4949C26.9953 21.4949 25.7155 22.7776 25.7155 24.3609V33.4005C25.7155 34.9837 26.9953 36.2666 28.574 36.2666H37.588C39.1667 36.2666 40.4466 34.9837 40.4466 33.4005V24.3609C40.4466 22.7776 39.1667 21.4949 37.588 21.4949H28.574Z" fill="white"/>
<path d="M136.436 30.3231H122.026C121.247 30.3231 120.615 29.6909 120.615 28.9124V27.2068C120.615 27.0031 120.449 26.8376 120.246 26.8376H120.106H117.078C116.875 26.8376 116.709 27.0031 116.709 27.2068V28.9187C116.709 29.6952 116.079 30.3252 115.303 30.3252H114.442C113.665 30.3252 113.035 29.6952 113.035 28.9187V27.2068C113.035 27.0031 112.87 26.8376 112.666 26.8376H109.552C109.348 26.8376 109.182 27.0031 109.182 27.2068V28.9124C109.182 29.6909 108.55 30.3231 107.772 30.3231H95.2303C95.0244 30.3231 94.8567 30.4907 94.8567 30.6964V32.226C94.8567 33.2568 95.6926 34.0908 96.7214 34.0908H107.343C108.794 34.0908 110.114 33.5347 111.109 32.629C112.104 33.5328 113.421 34.0908 114.872 34.0908C116.336 34.0908 117.666 33.5243 118.663 32.6057C119.662 33.5243 120.99 34.0908 122.456 34.0908H134.947C135.978 34.0908 136.812 33.2549 136.812 32.226V30.6964C136.812 30.4907 136.644 30.3231 136.438 30.3231H136.436Z" fill="white"/>
<path d="M118.277 35.3953H113.209C113.065 35.3953 112.948 35.5119 112.948 35.6562V37.9365C112.948 38.0808 113.065 38.1977 113.209 38.1977H116.818C117.776 38.1977 118.555 37.4189 118.555 36.4602V35.671C118.555 35.5182 118.43 35.3931 118.277 35.3931V35.3953Z" fill="white"/>
<path d="M84.905 35.845H79.7438C79.5994 35.845 79.4829 35.9616 79.4829 36.1059V38.2719C79.4829 38.4797 79.6506 38.6473 79.8606 38.6473H82.2003V40.7243C82.2003 40.8768 82.3234 41 82.4763 41H83.2209C84.2539 41 85.0898 40.1619 85.0898 39.1311V36.0276C85.0898 35.9256 85.007 35.845 84.9072 35.845H84.905Z" fill="white"/>
<path d="M104.967 35.6518H102.731C102.578 35.6518 102.455 35.775 102.455 35.9275V38.0786C102.455 38.2864 102.623 38.4541 102.83 38.4541H105.068C105.221 38.4541 105.344 38.331 105.344 38.1784V36.0295C105.344 35.8214 105.174 35.6518 104.967 35.6518Z" fill="white"/>
<path d="M87.5872 30.323H71.3755C71.1674 30.323 71 30.4906 71 30.6985V32.2259C71 33.2568 71.8356 34.0905 72.8647 34.0905H87.5872C87.7972 34.0905 87.9645 33.9209 87.9645 33.7128V30.7027C87.9645 30.4927 87.7949 30.3251 87.5872 30.3251V30.323Z" fill="white"/>
<path d="M92.767 23H89.7524C89.5447 23 89.3748 23.1697 89.3748 23.3776V33.7132C89.3748 33.9209 89.5447 34.0905 89.7524 34.0905H91.2755C92.3065 34.0905 93.1424 33.2549 93.1424 32.2238V23.3776C93.1424 23.1697 92.9748 23 92.7648 23H92.767Z" fill="white"/>
<path d="M61.3018 18L61 17.2092C61.7005 16.9872 62.2383 16.7201 62.6129 16.4079C62.9946 16.1027 63.2547 15.7836 63.3933 15.4506C63.539 15.1176 63.6119 14.7985 63.6119 14.4932C63.6119 14.299 63.5911 14.1117 63.5494 13.9313C63.5078 13.751 63.435 13.5463 63.3309 13.3174C63.2268 13.0884 63.0812 12.804 62.8939 12.4641L63.6535 12.0791C63.917 12.53 64.1043 12.9566 64.2154 13.359C64.3332 13.7614 64.3923 14.1152 64.3923 14.4204C64.3923 14.8574 64.3195 15.2529 64.1738 15.6067C64.0352 15.9605 63.8479 16.2726 63.6119 16.5432C63.3829 16.8207 63.1298 17.0565 62.8522 17.2508C62.5817 17.445 62.3078 17.6046 62.0302 17.7294C61.7596 17.8543 61.5169 17.9445 61.3018 18ZM63.102 10.8824C62.9563 10.8824 62.8314 10.8338 62.7274 10.7367C62.6304 10.6327 62.5817 10.5113 62.5817 10.3725C62.5817 10.2338 62.6304 10.1124 62.7274 10.0083C62.8314 9.90427 62.9563 9.85224 63.102 9.85224C63.2406 9.85224 63.3588 9.90427 63.4558 10.0083C63.5598 10.1124 63.6119 10.2338 63.6119 10.3725C63.6119 10.5113 63.5598 10.6327 63.4558 10.7367C63.3588 10.8338 63.2406 10.8824 63.102 10.8824ZM65.518 15.6067L65.3099 8.1769H66.1527L66.3609 15.6067H65.518ZM70.4013 15.6067V10.6015H69.4335V15.6067H70.4013ZM69.215 8.7076C69.215 9.09261 69.5272 9.40479 69.9122 9.40479C70.3076 9.40479 70.6198 9.09261 70.6198 8.7076C70.6198 8.31217 70.3076 8 69.9122 8C69.5272 8 69.215 8.31217 69.215 8.7076ZM72.2216 11.9126C72.2216 9.98751 73.5119 9.00937 74.8855 9.00937C76.259 9.00937 77.5494 9.98751 77.5494 11.9126C77.5494 13.8377 76.259 14.8262 74.8855 14.8262C73.5119 14.8262 72.2216 13.8377 72.2216 11.9126ZM71.181 11.9126C71.181 14.3788 73.0332 15.7627 74.8855 15.7627C76.7377 15.7627 78.5899 14.3788 78.5899 11.9126C78.5899 9.44641 76.7377 8.07284 74.8855 8.07284C73.0332 8.07284 71.181 9.44641 71.181 11.9126ZM84.1247 9.90427C83.9582 9.10302 83.2923 8.07284 81.6273 8.07284C80.2642 8.07284 79.1924 9.11342 79.1924 10.2685C79.1924 11.3715 79.9416 12.0583 80.9926 12.2872L82.0436 12.5161C82.7824 12.6722 83.1466 13.1301 83.1466 13.6608C83.1466 14.3059 82.6471 14.8366 81.6273 14.8366C80.5139 14.8366 79.9312 14.077 79.8583 13.2549L78.8802 13.5671C79.0155 14.6181 79.8583 15.7627 81.6377 15.7627C83.209 15.7627 84.1872 14.7222 84.1872 13.5775C84.1872 12.5473 83.5004 11.7773 82.2725 11.5068L81.1695 11.2674C80.5451 11.1322 80.2225 10.7263 80.2225 10.1956C80.2225 9.50884 80.8157 8.96774 81.6481 8.96774C82.6783 8.96774 83.1258 9.69615 83.209 10.2268L84.1247 9.90427ZM91.2709 15.6587C90.8963 15.6587 90.5633 15.6067 90.272 15.5026C89.9877 15.3916 89.7587 15.2078 89.5852 14.9511C89.4187 14.6875 89.325 14.3233 89.3042 13.8585L89.1377 10.2373H89.9806L90.1471 13.6712C90.1679 13.9972 90.227 14.2435 90.324 14.41C90.4214 14.5695 90.5566 14.6771 90.7298 14.7326C90.9104 14.7811 91.1252 14.8054 91.375 14.8054C91.5207 14.8054 91.6247 14.847 91.6872 14.9303C91.7567 15.0066 91.7912 15.1002 91.7912 15.2112C91.7912 15.3222 91.7429 15.4263 91.6455 15.5234C91.5485 15.6136 91.4237 15.6587 91.2709 15.6587ZM89.6996 14.514C89.3042 14.6389 88.9192 14.7014 88.5446 14.7014C88.17 14.7014 87.8303 14.6459 87.5248 14.5349C87.2197 14.4239 86.977 14.2643 86.7964 14.0562C86.6162 13.8411 86.5259 13.5845 86.5259 13.2862C86.5259 12.9948 86.5987 12.7208 86.7444 12.4641C86.8971 12.2074 87.1019 11.9785 87.3583 11.7773C87.6222 11.5761 87.924 11.4097 88.2636 11.2778C88.6107 11.1391 88.9783 11.0455 89.3667 10.9969L89.5123 11.871C89.1656 11.8848 88.8568 11.9334 88.5862 12.0166C88.3227 12.0929 88.0971 12.1935 87.9098 12.3184C87.7296 12.4433 87.591 12.5786 87.4936 12.7242C87.3966 12.8699 87.3479 13.0122 87.3479 13.1509C87.3479 13.3035 87.4037 13.4284 87.5144 13.5255C87.6255 13.6226 87.7679 13.6989 87.9411 13.7544C88.1146 13.803 88.3053 13.8342 88.5134 13.8481C88.7215 13.855 88.9229 13.8481 89.1169 13.8273C89.3113 13.7995 89.4778 13.7614 89.6164 13.7128L89.6996 14.514ZM97.3829 15.6587C97.0915 15.6587 96.8243 15.6413 96.5816 15.6067C96.3386 15.565 96.12 15.4922 95.926 15.3881C95.7317 15.2841 95.5685 15.1349 95.437 14.9407C95.305 14.7395 95.2043 14.4759 95.1352 14.1498L95.7491 13.7856C95.8391 14.0631 95.9502 14.2747 96.0821 14.4204C96.2137 14.5661 96.3906 14.6667 96.6128 14.7222C96.8418 14.7776 97.1331 14.8054 97.4869 14.8054C97.6326 14.8054 97.7367 14.847 97.7991 14.9303C97.8682 15.0066 97.9032 15.1002 97.9032 15.2112C97.9032 15.3222 97.8545 15.4263 97.7575 15.5234C97.6601 15.6136 97.5352 15.6587 97.3829 15.6587ZM90.7544 15.6587L90.848 14.8054C91.2085 14.8054 91.5623 14.7776 91.9094 14.7222C92.2561 14.6667 92.5962 14.5869 92.9292 14.4828C93.2622 14.3788 93.581 14.2539 93.8865 14.1082C94.1987 13.9556 94.4934 13.7822 94.771 13.5879C94.5904 13.4284 94.3823 13.2896 94.1466 13.1717C93.9107 13.0538 93.6505 12.9636 93.3662 12.9011C93.0886 12.8318 92.7939 12.7971 92.4817 12.7971C92.3706 12.7971 92.2665 12.8005 92.1695 12.8075C92.0722 12.8144 91.9752 12.8283 91.8782 12.8491C91.7808 12.863 91.6701 12.8838 91.5452 12.9116L91.3787 12.1207C91.566 12.0652 91.7533 12.0236 91.9406 11.9958C92.1279 11.9612 92.3082 11.9438 92.4817 11.9438C92.8422 11.9438 93.1685 11.9889 93.4599 12.0791C93.7512 12.1623 94.0147 12.2664 94.2507 12.3913C94.4934 12.5161 94.719 12.641 94.9271 12.7659C95.1419 12.8907 95.35 12.9983 95.5514 13.0884C95.7525 13.1717 95.9606 13.2133 96.1758 13.2133H96.3943L96.4671 13.9625C96.1687 13.9625 95.8948 14.0042 95.6451 14.0874C95.3953 14.1707 95.149 14.2782 94.9063 14.41C94.6703 14.5349 94.4205 14.6701 94.1571 14.8158C93.8932 14.9545 93.6018 15.0898 93.283 15.2216C92.9637 15.3465 92.5962 15.4506 92.18 15.5338C91.7704 15.6171 91.2955 15.6587 90.7544 15.6587ZM92.3881 10.872C92.2424 10.872 92.1175 10.8234 92.0135 10.7263C91.9161 10.6223 91.8678 10.5009 91.8678 10.3621C91.8678 10.2234 91.9161 10.102 92.0135 9.99792C92.1175 9.89386 92.2424 9.84183 92.3881 9.84183C92.5267 9.84183 92.6445 9.89386 92.7419 9.99792C92.8459 10.102 92.8979 10.2234 92.8979 10.3621C92.8979 10.5009 92.8459 10.6223 92.7419 10.7263C92.6445 10.8234 92.5267 10.872 92.3881 10.872ZM96.8596 15.6587L96.9637 14.8054C97.1855 14.8054 97.3658 14.7915 97.5048 14.7638C97.6434 14.7291 97.7578 14.6493 97.8482 14.5245C97.9451 14.3926 98.0355 14.188 98.1187 13.9105C98.202 13.633 98.2989 13.2445 98.4101 12.7451L99.1905 12.9636C99.1489 13.137 99.1002 13.3451 99.0448 13.5879C98.9891 13.8307 98.9616 14.0527 98.9616 14.2539C98.9616 14.3649 98.9891 14.462 99.0448 14.5453C99.1002 14.6285 99.1938 14.6944 99.3258 14.743C99.4644 14.7846 99.6484 14.8054 99.8773 14.8054C100.085 14.8054 100.255 14.7881 100.387 14.7534C100.519 14.7187 100.627 14.6355 100.71 14.5036C100.8 14.3718 100.88 14.1603 100.949 13.8689C101.018 13.5775 101.091 13.1786 101.168 12.6722L101.958 12.8179C101.938 12.9428 101.913 13.0954 101.886 13.2758C101.858 13.4561 101.83 13.6365 101.802 13.8169C101.782 13.9903 101.771 14.136 101.771 14.2539C101.771 14.351 101.792 14.4447 101.834 14.5349C101.882 14.6181 101.972 14.684 102.104 14.7326C102.243 14.7811 102.448 14.8054 102.718 14.8054C103.065 14.8054 103.315 14.7326 103.467 14.5869C103.627 14.4412 103.707 14.2192 103.707 13.9209C103.707 13.7614 103.703 13.5949 103.696 13.4214C103.689 13.2411 103.675 13.0434 103.655 12.8283C103.64 12.6063 103.616 12.3531 103.582 12.0687L104.341 12.0166C104.383 12.5786 104.428 13.0399 104.477 13.4006C104.532 13.7614 104.608 14.0458 104.706 14.2539C104.81 14.4551 104.948 14.5973 105.122 14.6805C105.295 14.7638 105.524 14.8054 105.809 14.8054C105.954 14.8054 106.058 14.847 106.121 14.9303C106.19 15.0066 106.225 15.1002 106.225 15.2112C106.225 15.3222 106.176 15.4263 106.079 15.5234C105.982 15.6136 105.857 15.6587 105.705 15.6587C105.469 15.6587 105.257 15.6275 105.07 15.565C104.889 15.4957 104.73 15.4055 104.591 15.2945C104.459 15.1766 104.348 15.0447 104.258 14.8991C104.175 14.7464 104.116 14.5869 104.081 14.4204L104.269 14.4828C104.192 14.795 104.071 15.0378 103.904 15.2112C103.745 15.3777 103.554 15.4957 103.332 15.565C103.11 15.6275 102.874 15.6587 102.624 15.6587C102.319 15.6587 102.069 15.6205 101.875 15.5442C101.681 15.4679 101.528 15.3535 101.417 15.2008C101.313 15.0413 101.244 14.8401 101.209 14.5973H101.563C101.431 14.8956 101.292 15.121 101.147 15.2737C101.001 15.4263 100.821 15.5304 100.606 15.5858C100.391 15.6344 100.106 15.6587 99.7524 15.6587C99.5789 15.6587 99.3916 15.6309 99.1905 15.5754C98.9961 15.52 98.8263 15.4124 98.6806 15.2529C98.5349 15.0864 98.448 14.8401 98.4205 14.514L98.7326 14.4516C98.6145 14.8054 98.4688 15.069 98.2956 15.2425C98.1291 15.4089 97.9277 15.52 97.6921 15.5754C97.4561 15.6309 97.1785 15.6587 96.8596 15.6587ZM105.18 15.6587L105.284 14.8054C105.624 14.8054 105.894 14.7846 106.096 14.743C106.297 14.7014 106.443 14.6181 106.533 14.4932C106.623 14.3614 106.668 14.1672 106.668 13.9105C106.668 13.7371 106.64 13.5324 106.585 13.2966C106.529 13.0538 106.456 12.7971 106.366 12.5265C106.276 12.256 106.179 11.9889 106.075 11.7253L106.918 11.4131C107.008 11.6351 107.091 11.8883 107.168 12.1727C107.251 12.4571 107.32 12.7381 107.376 13.0156C107.431 13.2931 107.459 13.5359 107.459 13.744C107.459 14.0215 107.428 14.2678 107.365 14.4828C107.31 14.6909 107.223 14.8713 107.105 15.0239C106.987 15.1696 106.835 15.291 106.647 15.3881C106.467 15.4783 106.255 15.5477 106.013 15.5963C105.77 15.6379 105.492 15.6587 105.18 15.6587ZM106.512 10.3309C106.366 10.3309 106.242 10.2823 106.138 10.1852C106.04 10.0812 105.992 9.95975 105.992 9.82102C105.992 9.68229 106.04 9.56087 106.138 9.45682C106.242 9.35276 106.366 9.30073 106.512 9.30073C106.651 9.30073 106.769 9.35276 106.866 9.45682C106.97 9.56087 107.022 9.68229 107.022 9.82102C107.022 9.95975 106.97 10.0812 106.866 10.1852C106.769 10.2823 106.651 10.3309 106.512 10.3309ZM113.594 15.8252L113.864 14.9719C114.287 14.9719 114.735 14.9476 115.207 14.8991C115.679 14.8436 116.147 14.7499 116.611 14.6181C117.083 14.4794 117.531 14.2921 117.954 14.0562C118.377 13.8203 118.748 13.522 119.067 13.1613L119.723 13.5463C119.66 13.7059 119.619 13.8342 119.598 13.9313C119.577 14.0215 119.567 14.1048 119.567 14.1811C119.567 14.2851 119.605 14.3857 119.681 14.4828C119.758 14.573 119.9 14.6493 120.108 14.7118C120.323 14.7742 120.625 14.8054 121.013 14.8054C121.159 14.8054 121.263 14.847 121.325 14.9303C121.395 15.0066 121.429 15.1002 121.429 15.2112C121.429 15.3222 121.381 15.4263 121.284 15.5234C121.187 15.6136 121.062 15.6587 120.909 15.6587C120.465 15.6587 120.073 15.6136 119.733 15.5234C119.4 15.4263 119.15 15.2771 118.984 15.076C118.824 14.8678 118.772 14.6008 118.828 14.2747L119.015 14.3371C118.738 14.5869 118.405 14.8054 118.016 14.9927C117.635 15.1731 117.208 15.3257 116.736 15.4506C116.272 15.5754 115.772 15.6691 115.238 15.7315C114.711 15.794 114.163 15.8252 113.594 15.8252ZM113.594 15.8252C112.976 15.8252 112.432 15.7836 111.96 15.7003C111.495 15.624 111.107 15.5026 110.794 15.3361C110.482 15.1696 110.247 14.9545 110.087 14.6909C109.927 14.4204 109.848 14.0944 109.848 13.7128C109.848 13.5394 109.862 13.3625 109.889 13.1821C109.917 12.9948 109.952 12.8075 109.993 12.6202C110.042 12.4329 110.091 12.2525 110.139 12.0791L110.919 12.2768C110.892 12.3809 110.861 12.5057 110.826 12.6514C110.791 12.7901 110.76 12.9324 110.732 13.078C110.711 13.2237 110.701 13.3555 110.701 13.4735C110.701 13.8342 110.791 14.1256 110.971 14.3476C111.159 14.5626 111.481 14.7222 111.939 14.8262C112.397 14.9233 113.039 14.9719 113.864 14.9719L114.072 15.4922L113.594 15.8252ZM115.342 11.4339C115.196 11.4339 115.071 11.3854 114.967 11.2882C114.87 11.1842 114.822 11.0628 114.822 10.924C114.822 10.7853 114.87 10.6639 114.967 10.5598C115.071 10.4558 115.196 10.4037 115.342 10.4037C115.481 10.4037 115.599 10.4558 115.696 10.5598C115.8 10.6639 115.852 10.7853 115.852 10.924C115.852 11.0628 115.8 11.1842 115.696 11.2882C115.599 11.3854 115.481 11.4339 115.342 11.4339ZM113.916 11.4339C113.771 11.4339 113.646 11.3854 113.542 11.2882C113.445 11.1842 113.396 11.0628 113.396 10.924C113.396 10.7853 113.445 10.6639 113.542 10.5598C113.646 10.4558 113.771 10.4037 113.916 10.4037C114.055 10.4037 114.173 10.4558 114.27 10.5598C114.374 10.6639 114.426 10.7853 114.426 10.924C114.426 11.0628 114.374 11.1842 114.27 11.2882C114.173 11.3854 114.055 11.4339 113.916 11.4339ZM120.386 15.6587L120.49 14.8054C120.664 14.8054 120.855 14.8054 121.063 14.8054C121.278 14.7985 121.493 14.7915 121.708 14.7846C121.93 14.7776 122.135 14.7638 122.322 14.743C122.509 14.7152 122.665 14.6805 122.79 14.6389C123.04 14.5487 123.234 14.4378 123.373 14.3059C123.512 14.1672 123.609 13.9868 123.664 13.7648C123.727 13.5359 123.758 13.2445 123.758 12.8907C123.758 12.5994 123.72 12.3288 123.643 12.0791C123.567 11.8293 123.459 11.6282 123.321 11.4755C123.182 11.3229 123.016 11.2466 122.821 11.2466C122.662 11.2466 122.516 11.3091 122.384 11.4339C122.259 11.5518 122.159 11.7045 122.083 11.8918C122.013 12.0791 121.979 12.2664 121.979 12.4537C121.979 12.5994 122.006 12.7242 122.062 12.8283C122.124 12.9324 122.225 13.0156 122.364 13.078C122.502 13.1335 122.683 13.1613 122.905 13.1613C123.106 13.1613 123.307 13.1405 123.508 13.0989C123.716 13.0572 123.893 13.0017 124.039 12.9324L124.08 13.6608C123.969 13.7371 123.845 13.7995 123.706 13.8481C123.567 13.8966 123.422 13.9313 123.269 13.9521C123.116 13.9729 122.964 13.9834 122.811 13.9834C122.457 13.9834 122.155 13.9279 121.906 13.8169C121.663 13.6989 121.476 13.5428 121.344 13.3486C121.219 13.1474 121.156 12.9185 121.156 12.6618C121.156 12.3982 121.198 12.1346 121.281 11.871C121.365 11.6004 121.482 11.3541 121.635 11.1322C121.788 10.9102 121.971 10.7333 122.187 10.6015C122.402 10.4627 122.641 10.3933 122.905 10.3933C123.279 10.3933 123.588 10.5148 123.831 10.7575C124.08 11.0003 124.264 11.3195 124.382 11.7149C124.507 12.1034 124.57 12.5161 124.57 12.9532C124.57 13.4735 124.479 13.9209 124.299 14.2955C124.125 14.6632 123.834 14.9684 123.425 15.2112C123.266 15.3014 123.071 15.3777 122.842 15.4402C122.62 15.4957 122.374 15.5408 122.103 15.5754C121.84 15.6101 121.562 15.6309 121.271 15.6379C120.98 15.6517 120.685 15.6587 120.386 15.6587ZM122.707 9.32154C122.561 9.32154 122.436 9.27297 122.332 9.17586C122.235 9.0718 122.187 8.95039 122.187 8.81165C122.187 8.67292 122.235 8.55151 122.332 8.44745C122.436 8.34339 122.561 8.29136 122.707 8.29136C122.846 8.29136 122.964 8.34339 123.061 8.44745C123.165 8.55151 123.217 8.67292 123.217 8.81165C123.217 8.95039 123.165 9.0718 123.061 9.17586C122.964 9.27297 122.846 9.32154 122.707 9.32154ZM127.548 15.6587C126.993 15.6587 126.567 15.5963 126.268 15.4714C125.977 15.3465 125.776 15.1523 125.665 14.8887C125.554 14.6251 125.492 14.2851 125.477 13.8689L125.269 8.1769H126.123L126.331 13.5359C126.345 13.8758 126.376 14.1394 126.424 14.3267C126.48 14.5071 126.598 14.632 126.778 14.7014C126.966 14.7707 127.257 14.8054 127.652 14.8054C127.798 14.8054 127.902 14.847 127.964 14.9303C128.034 15.0066 128.069 15.1002 128.069 15.2112C128.069 15.3222 128.02 15.4263 127.923 15.5234C127.826 15.6136 127.701 15.6587 127.548 15.6587ZM127.028 15.6587L127.132 14.8054C127.542 14.8054 127.861 14.7915 128.09 14.7638C128.319 14.7291 128.481 14.6493 128.579 14.5245C128.676 14.3926 128.724 14.188 128.724 13.9105C128.724 13.7371 128.697 13.5324 128.641 13.2966C128.585 13.0538 128.513 12.7971 128.423 12.5265C128.332 12.256 128.235 11.9889 128.131 11.7253L128.974 11.4131C129.064 11.6351 129.147 11.8883 129.224 12.1727C129.307 12.4571 129.376 12.7381 129.432 13.0156C129.487 13.2931 129.515 13.5359 129.515 13.744C129.515 14.0909 129.467 14.3857 129.37 14.6285C129.279 14.8713 129.134 15.069 128.933 15.2216C128.731 15.3743 128.471 15.4852 128.152 15.5546C127.84 15.624 127.465 15.6587 127.028 15.6587ZM128.953 17.6254C128.808 17.6254 128.683 17.5734 128.579 17.4693C128.481 17.3722 128.433 17.2542 128.433 17.1155C128.433 16.9768 128.481 16.8554 128.579 16.7513C128.683 16.6472 128.808 16.5952 128.953 16.5952C129.092 16.5952 129.21 16.6472 129.307 16.7513C129.411 16.8554 129.463 16.9768 129.463 17.1155C129.463 17.2542 129.411 17.3722 129.307 17.4693C129.21 17.5734 129.092 17.6254 128.953 17.6254ZM127.528 17.6254C127.382 17.6254 127.257 17.5734 127.153 17.4693C127.056 17.3722 127.008 17.2542 127.008 17.1155C127.008 16.9768 127.056 16.8554 127.153 16.7513C127.257 16.6472 127.382 16.5952 127.528 16.5952C127.666 16.5952 127.784 16.6472 127.882 16.7513C127.986 16.8554 128.038 16.9768 128.038 17.1155C128.038 17.2542 127.986 17.3722 127.882 17.4693C127.784 17.5734 127.666 17.6254 127.528 17.6254ZM129.659 18L129.357 17.2092C130.058 16.9872 130.596 16.7201 130.97 16.4079C131.352 16.1027 131.612 15.7836 131.751 15.4506C131.896 15.1176 131.969 14.7985 131.969 14.4932C131.969 14.299 131.948 14.1117 131.907 13.9313C131.865 13.751 131.792 13.5463 131.688 13.3174C131.584 13.0884 131.439 12.804 131.251 12.4641L132.011 12.0791C132.274 12.53 132.462 12.9566 132.573 13.359C132.691 13.7614 132.75 14.1152 132.75 14.4204C132.75 14.8574 132.677 15.2529 132.531 15.6067C132.393 15.9605 132.205 16.2726 131.969 16.5432C131.74 16.8207 131.487 17.0565 131.21 17.2508C130.939 17.445 130.665 17.6046 130.388 17.7294C130.117 17.8543 129.874 17.9445 129.659 18ZM133.282 15.1384L133.698 14.4204C133.837 14.5106 134.031 14.5973 134.281 14.6805C134.531 14.7638 134.822 14.8054 135.155 14.8054C135.502 14.8054 135.776 14.7707 135.977 14.7014C136.185 14.632 136.335 14.5314 136.425 14.3996C136.522 14.2609 136.57 14.1013 136.57 13.9209C136.57 13.7822 136.539 13.6122 136.477 13.411C136.421 13.2029 136.297 12.9254 136.102 12.5786C135.908 12.2248 135.61 11.7635 135.207 11.1946L135.925 10.7263C136.293 11.2328 136.585 11.6906 136.799 12.0999C137.022 12.5092 137.178 12.8699 137.268 13.1821C137.365 13.4873 137.413 13.751 137.413 13.9729C137.413 14.2504 137.344 14.521 137.205 14.7846C137.067 15.0413 136.834 15.2529 136.508 15.4194C136.182 15.5858 135.731 15.6691 135.155 15.6691C134.906 15.6691 134.663 15.6483 134.427 15.6067C134.198 15.565 133.986 15.5061 133.792 15.4298C133.598 15.3465 133.428 15.2494 133.282 15.1384Z" fill="white"/>
</svg>
